<svg xmlns="http://www.w3.org/2000/svg" xmlns:xlink="http://www.w3.org/1999/xlink" width="800" zoomAndPan="magnify" viewBox="0 0 600 135.000003" height="180" preserveAspectRatio="xMidYMid meet" version="1.0"><defs><g/><clipPath id="b0f23bbcb6"><path d="M 58.378906 51.226562 L 89.933594 51.226562 L 89.933594 82.78125 L 58.378906 82.78125 Z M 58.378906 51.226562 " clip-rule="nonzero"/></clipPath><clipPath id="4ceff92562"><path d="M 74.15625 51.226562 C 65.445312 51.226562 58.378906 58.289062 58.378906 67.003906 C 58.378906 75.71875 65.445312 82.78125 74.15625 82.78125 C 82.871094 82.78125 89.933594 75.71875 89.933594 67.003906 C 89.933594 58.289062 82.871094 51.226562 74.15625 51.226562 Z M 74.15625 51.226562 " clip-rule="nonzero"/></clipPath><clipPath id="698ce7b71a"><path d="M 61.734375 60 L 71 60 L 71 71 L 61.734375 71 Z M 61.734375 60 " clip-rule="nonzero"/></clipPath><clipPath id="5440e36372"><path d="M 72 54.582031 L 86 54.582031 L 86 62 L 72 62 Z M 72 54.582031 " clip-rule="nonzero"/></clipPath><clipPath id="aa38890a7d"><path d="M 64 54.582031 L 76 54.582031 L 76 66 L 64 66 Z M 64 54.582031 " clip-rule="nonzero"/></clipPath><clipPath id="b7ed57fd79"><path d="M 62 72 L 76 72 L 76 79.152344 L 62 79.152344 Z M 62 72 " clip-rule="nonzero"/></clipPath><clipPath id="89ebbd66e7"><path d="M 78 63 L 86.304688 63 L 86.304688 75 L 78 75 Z M 78 63 " clip-rule="nonzero"/></clipPath><clipPath id="4274fa103c"><path d="M 73 68 L 84 68 L 84 79.152344 L 73 79.152344 Z M 73 68 " clip-rule="nonzero"/></clipPath><clipPath id="1bdde3e64c"><path d="M 8 1.390625 L 141 1.390625 L 141 132.421875 L 8 132.421875 Z M 8 1.390625 " clip-rule="nonzero"/></clipPath></defs><g clip-path="url(#b0f23bbcb6)"><g clip-path="url(#4ceff92562)"><path fill="#000000" d="M 58.378906 51.226562 L 89.933594 51.226562 L 89.933594 82.78125 L 58.378906 82.78125 Z M 58.378906 51.226562 " fill-opacity="1" fill-rule="nonzero"/></g></g><g clip-path="url(#698ce7b71a)"><path fill="#f9f1ee" d="M 70.230469 70.640625 L 63.84375 60.042969 C 62.507812 62.023438 61.722656 64.410156 61.722656 66.976562 C 61.722656 68.25 61.917969 69.480469 62.277344 70.640625 Z M 70.230469 70.640625 " fill-opacity="1" fill-rule="nonzero"/></g><g clip-path="url(#5440e36372)"><path fill="#f9f1ee" d="M 72.914062 61.714844 L 85.359375 61.714844 C 83.761719 58.316406 80.664062 55.757812 76.925781 54.890625 Z M 72.914062 61.714844 " fill-opacity="1" fill-rule="nonzero"/></g><g clip-path="url(#aa38890a7d)"><path fill="#f9f1ee" d="M 68.917969 65.554688 L 75.339844 54.628906 C 74.941406 54.589844 74.539062 54.570312 74.128906 54.570312 C 70.429688 54.570312 67.105469 56.199219 64.832031 58.773438 Z M 68.917969 65.554688 " fill-opacity="1" fill-rule="nonzero"/></g><g clip-path="url(#b7ed57fd79)"><path fill="#f9f1ee" d="M 71.503906 78.992188 L 75.433594 72.140625 L 62.851562 72.140625 C 64.503906 75.726562 67.816406 78.398438 71.796875 79.160156 Z M 71.503906 78.992188 " fill-opacity="1" fill-rule="nonzero"/></g><g clip-path="url(#89ebbd66e7)"><path fill="#f9f1ee" d="M 78.007812 63.214844 L 84.277344 74.097656 C 85.699219 72.078125 86.535156 69.625 86.535156 66.976562 C 86.535156 65.664062 86.328125 64.402344 85.949219 63.214844 Z M 78.007812 63.214844 " fill-opacity="1" fill-rule="nonzero"/></g><g clip-path="url(#4274fa103c)"><path fill="#f9f1ee" d="M 79.285156 68.4375 L 73.039062 79.332031 C 73.398438 79.363281 73.761719 79.382812 74.128906 79.382812 C 77.742188 79.382812 81 77.828125 83.269531 75.351562 Z M 79.285156 68.4375 " fill-opacity="1" fill-rule="nonzero"/></g><g clip-path="url(#1bdde3e64c)"><path fill="#000000" d="M 64.335938 1.425781 C 48.460938 1.425781 35.1875 12.515625 31.855469 27.367188 C 23.96875 29.699219 16.921875 34.964844 12.476562 42.652344 C 12.476562 42.652344 12.476562 42.65625 12.476562 42.660156 C 4.542969 56.394531 7.519531 73.414062 18.730469 83.71875 C 16.808594 91.707031 17.851562 100.433594 22.292969 108.121094 C 30.230469 121.855469 46.480469 127.792969 61.023438 123.246094 C 66.992188 128.90625 75.078125 132.367188 83.960938 132.367188 C 99.839844 132.367188 113.113281 121.28125 116.445312 106.425781 C 124.332031 104.097656 131.378906 98.832031 135.824219 91.144531 C 135.824219 91.136719 135.828125 91.132812 135.828125 91.128906 C 143.757812 77.394531 140.777344 60.378906 129.570312 50.078125 C 131.492188 42.085938 130.449219 33.359375 126.007812 25.675781 C 118.070312 11.941406 101.820312 6.003906 87.277344 10.546875 C 81.3125 4.890625 73.222656 1.425781 64.339844 1.425781 Z M 64.335938 7.429688 C 70.597656 7.429688 76.296875 9.519531 80.878906 13.007812 L 52.757812 29.511719 C 52.4375 29.730469 52.167969 30.003906 51.949219 30.328125 C 51.523438 30.84375 51.296875 31.4375 51.269531 32.109375 L 51.273438 55.441406 C 51.273438 55.445312 51.273438 55.449219 51.277344 55.453125 L 51.277344 73.15625 L 37.054688 64.957031 L 37.054688 34.664062 C 37.054688 19.515625 49.171875 7.429688 64.335938 7.429688 Z M 96.480469 15.007812 C 106.140625 14.738281 115.589844 19.65625 120.800781 28.675781 C 123.933594 34.09375 124.972656 40.066406 124.234375 45.773438 L 95.871094 29.699219 C 95.515625 29.53125 95.144531 29.433594 94.75 29.40625 C 94.089844 29.300781 93.464844 29.398438 92.871094 29.710938 L 72.644531 41.378906 C 72.640625 41.382812 72.636719 41.386719 72.636719 41.386719 L 57.285156 50.238281 L 57.285156 33.835938 L 83.546875 18.691406 C 87.652344 16.324219 92.089844 15.128906 96.480469 15.007812 Z M 30.789062 34.132812 L 31.039062 66.710938 C 31.066406 67.121094 31.171875 67.507812 31.359375 67.875 C 31.601562 68.476562 31.996094 68.949219 32.546875 69.296875 L 52.777344 80.960938 C 52.78125 80.960938 52.785156 80.960938 52.792969 80.964844 L 68.140625 89.816406 L 53.917969 98.015625 L 27.65625 82.871094 C 14.523438 75.296875 10.105469 58.773438 17.6875 45.652344 C 17.6875 45.648438 17.6875 45.644531 17.691406 45.644531 C 20.820312 40.230469 25.476562 36.347656 30.789062 34.132812 Z M 94.382812 35.777344 L 120.644531 50.921875 C 133.777344 58.496094 138.195312 75.023438 130.613281 88.144531 C 130.613281 88.144531 130.613281 88.148438 130.613281 88.148438 C 127.480469 93.5625 122.824219 97.445312 117.511719 99.660156 L 117.261719 67.085938 C 117.234375 66.675781 117.128906 66.289062 116.941406 65.921875 C 116.699219 65.320312 116.304688 64.84375 115.753906 64.5 L 95.523438 52.835938 C 95.519531 52.835938 95.515625 52.832031 95.507812 52.832031 L 80.160156 43.980469 Z M 74.148438 47.445312 L 91.015625 57.171875 L 91.015625 76.625 L 74.152344 86.347656 L 57.285156 76.625 L 57.285156 57.171875 Z M 97.023438 60.640625 L 111.246094 68.839844 L 111.246094 99.132812 C 111.246094 114.277344 99.128906 126.363281 83.960938 126.363281 C 77.703125 126.363281 72.003906 124.277344 67.425781 120.785156 L 95.542969 104.285156 C 95.546875 104.28125 95.550781 104.277344 95.554688 104.269531 C 96.003906 104.003906 96.359375 103.644531 96.621094 103.195312 C 96.625 103.1875 96.628906 103.183594 96.628906 103.175781 C 96.898438 102.714844 97.03125 102.21875 97.03125 101.6875 L 97.027344 78.355469 C 97.027344 78.351562 97.027344 78.34375 97.023438 78.339844 Z M 91.015625 83.554688 L 91.015625 99.960938 L 64.753906 115.105469 C 51.621094 122.679688 35.082031 118.238281 27.5 105.121094 C 24.367188 99.703125 23.328125 93.730469 24.066406 88.023438 L 52.429688 104.09375 C 52.785156 104.265625 53.15625 104.363281 53.550781 104.386719 C 54.210938 104.496094 54.835938 104.394531 55.429688 104.085938 L 75.65625 92.414062 C 75.664062 92.410156 75.667969 92.40625 75.671875 92.402344 Z M 91.015625 83.554688 " fill-opacity="1" fill-rule="nonzero"/></g><g fill="#000000" fill-opacity="1"><g transform="translate(152.299895, 93.143415)"><g><path d="M 36.296875 -1.457031 L 29.015625 -4.785156 L 29.015625 -70.925781 L 36.296875 -74.152344 L 36.296875 -75.605469 C 36.296875 -75.605469 29.015625 -75.710938 19.96875 -75.710938 C 10.917969 -75.710938 3.640625 -75.605469 3.640625 -75.605469 L 3.640625 -74.152344 L 11.230469 -70.925781 L 11.230469 -4.785156 L 3.640625 -1.457031 L 3.640625 0.105469 C 3.640625 0.105469 10.917969 0 19.96875 0 C 29.015625 0 36.296875 0.105469 36.296875 0.105469 Z M 36.296875 -1.457031 "/></g></g></g><g fill="#000000" fill-opacity="1"><g transform="translate(187.761878, 93.143415)"><g><path d="M 86.214844 -1.558594 L 79.039062 -4.785156 L 79.039062 -70.71875 L 86.214844 -74.046875 L 86.214844 -75.503906 L 59.800781 -75.503906 C 59.800781 -75.296875 56.886719 -59.800781 50.023438 -34.320312 C 48.464844 -32.34375 47.214844 -33.382812 46.175781 -34.421875 L 28.703125 -75.503906 L 1.664062 -75.398438 C 1.664062 -75.398438 1.558594 -74.152344 1.664062 -73.941406 C 1.664062 -73.632812 6.550781 -71.863281 8.113281 -71.03125 C 6.34375 -20.175781 6.863281 -6.550781 1.664062 -1.457031 C 1.664062 -0.726562 1.664062 -0.3125 1.664062 0.105469 C 1.976562 0.105469 -0.3125 0 8.632812 0 C 16.847656 0 25.0625 0 26.105469 0.105469 C 26.105469 -0.519531 26.105469 -1.246094 26.105469 -1.664062 C 18.617188 -4.785156 10.398438 -3.015625 9.464844 -48.464844 L 9.671875 -66.351562 C 9.671875 -67.910156 9.878906 -68.222656 10.917969 -66.246094 L 40.664062 0 L 42.328125 0 C 42.328125 0 58.03125 -58.34375 58.757812 -61.773438 C 59.28125 -63.542969 61.152344 -63.335938 61.152344 -61.464844 C 61.253906 -57.824219 61.253906 -37.960938 61.253906 -4.785156 L 53.664062 -1.664062 L 53.664062 0.105469 C 53.664062 0.105469 60.941406 0 69.992188 0 C 78.933594 0 86.214844 0.105469 86.214844 0.105469 Z M 86.214844 -1.558594 "/></g></g></g><g fill="#000000" fill-opacity="1"><g transform="translate(271.997476, 93.143415)"><g><path d="M 85.589844 -1.457031 L 78.414062 -4.886719 L 52.101562 -70.824219 L 58.65625 -74.152344 L 58.757812 -75.605469 L 32.96875 -75.710938 C 16.847656 -17.992188 15.289062 -7.070312 1.976562 -1.558594 C 1.976562 -0.832031 1.976562 -0.519531 1.976562 -0.105469 C 2.289062 -0.105469 36.710938 -0.105469 37.75 -0.105469 C 37.648438 -0.414062 37.855469 -0.832031 37.75 -1.558594 C 29.222656 -2.078125 25.894531 -12.273438 25.582031 -25.0625 L 50.023438 -25.0625 C 54.078125 -14.144531 57.40625 -5.097656 57.40625 -5.097656 L 52.3125 -1.457031 L 52.3125 0.105469 L 85.589844 0 Z M 25.582031 -26.9375 C 25.582031 -39.207031 28.390625 -54.183594 32.136719 -67.703125 C 32.96875 -70.511719 33.28125 -70.824219 34.320312 -67.289062 C 34.527344 -66.664062 42.742188 -44.511719 49.296875 -26.9375 Z M 25.582031 -26.9375 "/></g></g></g><g fill="#000000" fill-opacity="1"><g transform="translate(356.025097, 93.143415)"><g><path d="M 42.328125 -30.160156 L 42.328125 -28.078125 C 44.617188 -28.078125 47.113281 -27.976562 49.296875 -27.976562 C 51.792969 -27.976562 52.519531 -26.414062 52.625 -23.191406 C 52.519531 -17.574219 53.039062 -11.960938 52.726562 -8.527344 C 52.414062 -5.511719 50.75 -3.121094 47.421875 -2.496094 C 41.390625 -1.246094 32.96875 -3.328125 28.910156 -10.609375 C 18.199219 -29.847656 24.335938 -74.671875 38.894531 -73.941406 C 48.878906 -73.421875 52.3125 -60.941406 45.449219 -47.945312 C 45.96875 -47.320312 46.175781 -47.007812 47.007812 -46.175781 C 55.953125 -47.527344 68.847656 -51.480469 68.847656 -51.480469 C 68.742188 -60.632812 64.582031 -68.121094 56.261719 -72.277344 C 45.96875 -77.375 32.34375 -76.960938 22.464844 -72.070312 C -2.183594 -60.109375 -3.847656 -21.632812 17.992188 -6.136719 C 26.414062 0 46.589844 4.054688 59.382812 -5.71875 C 64.269531 -9.257812 66.039062 -6.65625 66.457031 -1.351562 L 68.640625 -1.351562 C 68.640625 -8.632812 68.742188 -24.648438 68.742188 -26.105469 C 68.742188 -28.910156 68.222656 -30.160156 65.3125 -30.160156 Z M 42.328125 -30.160156 "/></g></g></g><g fill="#000000" fill-opacity="1"><g transform="translate(423.725508, 93.143415)"><g><path d="M 36.296875 -1.457031 L 29.015625 -4.785156 L 29.015625 -70.925781 L 36.296875 -74.152344 L 36.296875 -75.605469 C 36.296875 -75.605469 29.015625 -75.710938 19.96875 -75.710938 C 10.917969 -75.710938 3.640625 -75.605469 3.640625 -75.605469 L 3.640625 -74.152344 L 11.230469 -70.925781 L 11.230469 -4.785156 L 3.640625 -1.457031 L 3.640625 0.105469 C 3.640625 0.105469 10.917969 0 19.96875 0 C 29.015625 0 36.296875 0.105469 36.296875 0.105469 Z M 36.296875 -1.457031 "/></g></g></g><g fill="#000000" fill-opacity="1"><g transform="translate(459.18749, 93.143415)"><g><path d="M 69.261719 -75.816406 C 69.054688 -75.710938 70.613281 -75.710938 61.566406 -75.710938 C 53.351562 -75.710938 44.199219 -75.816406 44.199219 -75.816406 C 44.199219 -75.816406 44.09375 -74.773438 44.199219 -74.253906 C 57.824219 -68.429688 58.96875 -67.597656 60.527344 -33.488281 C 60.734375 -29.328125 60.421875 -29.640625 59.28125 -31.09375 C 57.09375 -33.800781 24.335938 -75.503906 24.335938 -75.503906 C 16.953125 -75.503906 3.222656 -75.503906 3.222656 -75.503906 L 3.222656 -74.046875 C 3.222656 -74.046875 8.527344 -71.550781 9.984375 -70.925781 C 9.984375 -70.925781 9.984375 -47.214844 9.878906 -45.449219 C 8.632812 -17.886719 9.152344 -4.992188 3.121094 -1.664062 C 3.015625 -0.832031 3.015625 -0.625 3.015625 0 C 3.222656 0 27.976562 0 27.976562 0 C 27.976562 0 28.078125 -0.625 28.078125 -1.558594 C 20.589844 -4.785156 12.582031 -3.121094 11.648438 -48.566406 C 11.542969 -55.742188 11.441406 -55.847656 11.855469 -56.886719 C 12.167969 -57.71875 12.6875 -58.238281 13.414062 -57.511719 L 58.863281 -0.105469 L 62.191406 -0.105469 C 62.191406 -0.105469 62.296875 -30.367188 62.398438 -33.28125 C 63.648438 -58.03125 63.4375 -71.550781 69.261719 -74.253906 C 69.367188 -74.773438 69.367188 -75.191406 69.261719 -75.816406 Z M 69.261719 -75.816406 "/></g></g></g><g fill="#000000" fill-opacity="1"><g transform="translate(527.095916, 93.143415)"><g><path d="M 53.664062 -9.777344 C 53.558594 -17.160156 53.457031 -24.75 53.558594 -25.375 C 52.726562 -25.375 52 -25.375 51.0625 -25.375 C 49.917969 -17.265625 46.070312 -5.097656 38.375 -2.289062 C 34.734375 -1.039062 27.976562 -1.351562 26.726562 -5.617188 C 26.414062 -6.863281 26.207031 -8.527344 26.207031 -11.128906 L 26.207031 -34.214844 C 38.480469 -48.566406 41.808594 -28.808594 43.054688 -21.113281 L 44.304688 -21.113281 C 44.304688 -21.113281 43.261719 -35.878906 44.09375 -43.160156 C 44.925781 -50.4375 33.382812 -50.4375 26.207031 -37.023438 L 26.207031 -64.480469 C 26.207031 -67.078125 26.414062 -68.742188 26.726562 -69.992188 C 27.976562 -74.253906 34.734375 -74.566406 38.375 -73.214844 C 46.070312 -70.511719 49.917969 -58.238281 51.0625 -50.230469 C 52.101562 -50.230469 52.832031 -50.230469 53.558594 -50.230469 C 53.457031 -50.855469 53.558594 -58.449219 53.664062 -65.832031 C 53.765625 -68.847656 55.953125 -72.902344 57.40625 -74.878906 C 57.617188 -75.191406 57.511719 -75.605469 56.992188 -75.605469 C 49.503906 -75.605469 1.144531 -75.503906 1.144531 -75.503906 L 1.144531 -74.046875 L 8.527344 -70.824219 L 8.632812 -31.71875 L 8.527344 -4.785156 L 1.144531 -1.457031 L 1.144531 0.105469 C 1.144531 0.105469 49.503906 0 56.992188 0.105469 C 57.511719 0.105469 57.617188 -0.414062 57.40625 -0.726562 C 55.953125 -2.601562 53.765625 -6.761719 53.664062 -9.777344 Z M 53.664062 -9.777344 "/></g></g></g><g fill="#000000" fill-opacity="1"><g transform="translate(337.981878, 121.00803)"><g><path d="M 12.882812 -17.769531 L 12.882812 -10.632812 L 5.65625 -10.632812 L 5.65625 -17.769531 L 1.746094 -17.769531 L 1.746094 0 L 5.65625 0 L 5.65625 -7.167969 L 12.882812 -7.167969 L 12.882812 0 L 16.761719 0 L 16.761719 -17.769531 Z M 12.882812 -17.769531 "/></g></g></g><g fill="#000000" fill-opacity="1"><g transform="translate(361.775325, 121.00803)"><g><path d="M 9.03125 0.238281 C 13.238281 0.238281 16.4375 -2.339844 16.4375 -5.6875 L 16.4375 -17.769531 L 12.527344 -17.769531 L 12.527344 -6.425781 C 12.527344 -4.621094 11.015625 -3.226562 9.03125 -3.226562 C 7.078125 -3.226562 5.566406 -4.621094 5.566406 -6.425781 L 5.566406 -17.769531 L 1.660156 -17.769531 L 1.660156 -5.6875 C 1.660156 -2.339844 4.886719 0.238281 9.03125 0.238281 Z M 9.03125 0.238281 "/></g></g></g><g fill="#000000" fill-opacity="1"><g transform="translate(385.124724, 121.00803)"><g><path d="M 12.4375 -9.003906 C 13.769531 -9.714844 14.628906 -10.957031 14.628906 -12.824219 C 14.628906 -15.960938 12.261719 -17.769531 9.269531 -17.769531 L 1.746094 -17.769531 L 1.746094 0 L 9.949219 0 C 12.914062 0 15.222656 -1.71875 15.222656 -4.855469 C 15.222656 -7.019531 14.097656 -8.351562 12.4375 -9.003906 Z M 10.71875 -12.410156 C 10.71875 -11.371094 9.863281 -10.484375 8.796875 -10.484375 L 5.65625 -10.484375 L 5.65625 -14.304688 L 8.796875 -14.304688 C 9.863281 -14.304688 10.71875 -13.476562 10.71875 -12.410156 Z M 9.386719 -3.464844 L 5.65625 -3.464844 L 5.65625 -7.285156 L 9.386719 -7.285156 C 10.484375 -7.285156 11.3125 -6.398438 11.3125 -5.359375 C 11.3125 -4.292969 10.484375 -3.464844 9.386719 -3.464844 Z M 9.386719 -3.464844 "/></g></g></g></svg>