<svg xmlns="http://www.w3.org/2000/svg" xmlns:xlink="http://www.w3.org/1999/xlink" width="1600" zoomAndPan="magnify" viewBox="0 0 1200 269.999989" height="360" preserveAspectRatio="xMidYMid meet" version="1.0"><defs><g/><clipPath id="c61bb52319"><path d="M 113.179688 103.210938 L 176.757812 103.210938 L 176.757812 166.789062 L 113.179688 166.789062 Z M 113.179688 103.210938 " clip-rule="nonzero"/></clipPath><clipPath id="dcef258563"><path d="M 144.96875 103.210938 C 127.414062 103.210938 113.179688 117.445312 113.179688 135 C 113.179688 152.554688 127.414062 166.789062 144.96875 166.789062 C 162.523438 166.789062 176.757812 152.554688 176.757812 135 C 176.757812 117.445312 162.523438 103.210938 144.96875 103.210938 Z M 144.96875 103.210938 " clip-rule="nonzero"/></clipPath><clipPath id="b15c736b57"><path d="M 119.941406 120 L 138 120 L 138 143 L 119.941406 143 Z M 119.941406 120 " clip-rule="nonzero"/></clipPath><clipPath id="e57b1a9d98"><path d="M 126 109.972656 L 148 109.972656 L 148 133 L 126 133 Z M 126 109.972656 " clip-rule="nonzero"/></clipPath><clipPath id="1ee20f82d6"><path d="M 11 2.800781 L 279 2.800781 L 279 267.550781 L 11 267.550781 Z M 11 2.800781 " clip-rule="nonzero"/></clipPath></defs><rect x="-120" width="1440" fill="#ffffff" y="-26.999999" height="323.999987" fill-opacity="1"/><rect x="-120" width="1440" fill="#ffffff" y="-26.999999" height="323.999987" fill-opacity="1"/><g clip-path="url(#c61bb52319)"><g clip-path="url(#dcef258563)"><path fill="#000000" d="M 113.179688 103.210938 L 176.757812 103.210938 L 176.757812 166.789062 L 113.179688 166.789062 Z M 113.179688 103.210938 " fill-opacity="1" fill-rule="nonzero"/></g></g><g clip-path="url(#b15c736b57)"><path fill="#f9f1ee" d="M 137.0625 142.335938 L 124.195312 120.976562 C 121.492188 124.96875 119.914062 129.777344 119.914062 134.949219 C 119.914062 137.519531 120.304688 140 121.03125 142.335938 Z M 137.0625 142.335938 " fill-opacity="1" fill-rule="nonzero"/></g><path fill="#f9f1ee" d="M 142.46875 124.347656 L 167.550781 124.347656 C 164.332031 117.496094 158.089844 112.339844 150.550781 110.597656 Z M 142.46875 124.347656 " fill-opacity="1" fill-rule="nonzero"/><g clip-path="url(#e57b1a9d98)"><path fill="#f9f1ee" d="M 134.417969 132.089844 L 147.359375 110.070312 C 146.554688 109.988281 145.742188 109.949219 144.917969 109.949219 C 137.460938 109.949219 130.765625 113.230469 126.179688 118.421875 Z M 134.417969 132.089844 " fill-opacity="1" fill-rule="nonzero"/></g><path fill="#f9f1ee" d="M 139.628906 159.164062 L 147.546875 145.355469 L 122.195312 145.355469 C 125.519531 152.585938 132.191406 157.96875 140.21875 159.5 Z M 139.628906 159.164062 " fill-opacity="1" fill-rule="nonzero"/><path fill="#f9f1ee" d="M 152.734375 127.371094 L 165.371094 149.300781 C 168.230469 145.234375 169.917969 140.285156 169.917969 134.949219 C 169.917969 132.308594 169.503906 129.761719 168.742188 127.371094 Z M 152.734375 127.371094 " fill-opacity="1" fill-rule="nonzero"/><path fill="#f9f1ee" d="M 155.308594 137.890625 L 142.71875 159.847656 C 143.445312 159.910156 144.175781 159.949219 144.917969 159.949219 C 152.203125 159.949219 158.765625 156.816406 163.339844 151.828125 Z M 155.308594 137.890625 " fill-opacity="1" fill-rule="nonzero"/><g clip-path="url(#1ee20f82d6)"><path fill="#000000" d="M 125.183594 2.882812 C 93.191406 2.882812 66.453125 25.285156 59.742188 55.292969 C 43.84375 60.003906 29.648438 70.640625 20.695312 86.171875 C 20.695312 86.179688 20.695312 86.183594 20.691406 86.191406 C 4.710938 113.9375 10.710938 148.324219 33.296875 169.148438 C 29.421875 185.289062 31.519531 202.921875 40.472656 218.449219 C 56.46875 246.203125 89.207031 258.199219 118.511719 249.015625 C 130.527344 260.445312 146.820312 267.441406 164.726562 267.441406 C 196.71875 267.441406 223.457031 245.039062 230.167969 215.027344 C 246.0625 210.320312 260.261719 199.683594 269.214844 184.152344 C 269.21875 184.140625 269.222656 184.128906 269.226562 184.117188 C 285.195312 156.371094 279.195312 121.992188 256.613281 101.175781 C 260.488281 85.03125 258.386719 67.402344 249.4375 51.875 C 233.441406 24.121094 200.703125 12.125 171.402344 21.308594 C 159.382812 9.878906 143.085938 2.882812 125.183594 2.882812 Z M 125.183594 15.011719 C 137.800781 15.011719 149.28125 19.230469 158.507812 26.28125 L 101.855469 59.625 C 101.203125 60.066406 100.660156 60.617188 100.226562 61.273438 C 99.367188 62.320312 98.910156 63.515625 98.851562 64.871094 L 98.859375 112.015625 C 98.863281 112.023438 98.863281 112.03125 98.867188 112.039062 L 98.867188 147.808594 L 70.214844 131.238281 L 70.214844 70.035156 C 70.214844 39.433594 94.628906 15.011719 125.183594 15.011719 Z M 189.945312 30.320312 C 209.414062 29.777344 228.445312 39.710938 238.949219 57.9375 C 245.253906 68.878906 247.351562 80.949219 245.867188 92.476562 L 188.714844 60.003906 C 188.003906 59.660156 187.25 59.464844 186.460938 59.414062 C 185.132812 59.195312 183.871094 59.398438 182.675781 60.023438 L 141.917969 83.605469 C 141.914062 83.609375 141.910156 83.613281 141.902344 83.621094 L 110.976562 101.503906 L 110.976562 68.363281 L 163.890625 37.761719 C 172.160156 32.980469 181.097656 30.566406 189.945312 30.320312 Z M 57.589844 68.964844 L 58.09375 134.78125 C 58.148438 135.609375 58.363281 136.394531 58.738281 137.136719 C 59.226562 138.351562 60.023438 139.308594 61.128906 140.007812 L 101.894531 163.574219 C 101.902344 163.574219 101.910156 163.578125 101.921875 163.578125 L 132.847656 181.464844 L 104.191406 198.035156 L 51.277344 167.4375 C 24.820312 152.136719 15.914062 118.742188 31.191406 92.234375 C 31.195312 92.230469 31.195312 92.222656 31.199219 92.214844 C 37.507812 81.285156 46.890625 73.4375 57.589844 68.964844 Z M 185.71875 72.289062 L 238.632812 102.886719 C 265.089844 118.1875 273.996094 151.578125 258.71875 178.085938 C 258.71875 178.089844 258.714844 178.09375 258.714844 178.097656 C 252.40625 189.035156 243.023438 196.882812 232.320312 201.359375 L 231.8125 135.542969 C 231.761719 134.714844 231.546875 133.929688 231.171875 133.1875 C 230.683594 131.972656 229.886719 131.015625 228.78125 130.316406 L 188.015625 106.75 C 188.007812 106.746094 188 106.746094 187.988281 106.742188 L 157.0625 88.859375 Z M 144.953125 95.863281 L 178.933594 115.511719 L 178.933594 154.8125 L 144.957031 174.460938 L 110.976562 154.8125 L 110.976562 115.511719 Z M 191.042969 122.515625 L 219.695312 139.085938 L 219.695312 200.289062 C 219.695312 230.890625 195.28125 255.3125 164.726562 255.3125 C 152.109375 255.3125 140.625 251.09375 131.402344 244.042969 L 188.054688 210.699219 C 188.0625 210.691406 188.074219 210.679688 188.082031 210.671875 C 188.984375 210.132812 189.703125 209.410156 190.230469 208.496094 C 190.234375 208.484375 190.242188 208.472656 190.25 208.460938 C 190.785156 207.53125 191.054688 206.527344 191.058594 205.453125 L 191.050781 158.308594 C 191.046875 158.300781 191.046875 158.292969 191.042969 158.28125 Z M 178.933594 168.820312 L 178.933594 201.960938 L 126.019531 232.5625 C 99.558594 247.863281 66.238281 238.894531 50.960938 212.386719 C 44.652344 201.445312 42.558594 189.375 44.042969 177.847656 L 101.195312 210.316406 C 101.90625 210.660156 102.660156 210.859375 103.449219 210.910156 C 104.777344 211.125 106.039062 210.921875 107.234375 210.296875 L 147.992188 186.71875 C 148 186.710938 148.011719 186.703125 148.023438 186.695312 Z M 178.933594 168.820312 " fill-opacity="1" fill-rule="nonzero"/></g><g fill="#000000" fill-opacity="1"><g transform="translate(302.411659, 187.666709)"><g><path d="M 73.128906 -2.933594 L 58.460938 -9.640625 L 58.460938 -142.90625 L 73.128906 -149.402344 L 73.128906 -152.335938 C 73.128906 -152.335938 58.460938 -152.542969 40.230469 -152.542969 C 22 -152.542969 7.332031 -152.335938 7.332031 -152.335938 L 7.332031 -149.402344 L 22.628906 -142.90625 L 22.628906 -9.640625 L 7.332031 -2.933594 L 7.332031 0.210938 C 7.332031 0.210938 22 0 40.230469 0 C 58.460938 0 73.128906 0.210938 73.128906 0.210938 Z M 73.128906 -2.933594 "/></g></g></g><g fill="#000000" fill-opacity="1"><g transform="translate(373.860983, 187.666709)"><g><path d="M 173.707031 -3.144531 L 159.25 -9.640625 L 159.25 -142.484375 L 173.707031 -149.191406 L 173.707031 -152.125 L 120.484375 -152.125 C 120.484375 -151.707031 114.617188 -120.484375 100.789062 -69.148438 C 97.644531 -65.167969 95.128906 -67.261719 93.035156 -69.355469 L 57.832031 -152.125 L 3.351562 -151.914062 C 3.351562 -151.914062 3.144531 -149.402344 3.351562 -148.980469 C 3.351562 -148.351562 13.199219 -144.789062 16.34375 -143.113281 C 12.78125 -40.652344 13.828125 -13.199219 3.351562 -2.933594 C 3.351562 -1.464844 3.351562 -0.628906 3.351562 0.210938 C 3.980469 0.210938 -0.628906 0 17.390625 0 C 33.945312 0 50.5 0 52.59375 0.210938 C 52.59375 -1.046875 52.59375 -2.515625 52.59375 -3.351562 C 37.507812 -9.640625 20.953125 -6.078125 19.066406 -97.644531 L 19.488281 -133.683594 C 19.488281 -136.828125 19.90625 -137.457031 22 -133.476562 L 81.929688 0 L 85.28125 0 C 85.28125 0 116.921875 -117.550781 118.390625 -124.464844 C 119.4375 -128.027344 123.207031 -127.609375 123.207031 -123.835938 C 123.417969 -116.503906 123.417969 -76.480469 123.417969 -9.640625 L 108.121094 -3.351562 L 108.121094 0.210938 C 108.121094 0.210938 122.789062 0 141.019531 0 C 159.039062 0 173.707031 0.210938 173.707031 0.210938 Z M 173.707031 -3.144531 "/></g></g></g><g fill="#000000" fill-opacity="1"><g transform="translate(543.580106, 187.666709)"><g><path d="M 172.449219 -2.933594 L 157.992188 -9.847656 L 104.980469 -142.695312 L 118.179688 -149.402344 L 118.390625 -152.335938 L 66.421875 -152.542969 C 33.945312 -36.25 30.800781 -14.25 3.980469 -3.144531 C 3.980469 -1.675781 3.980469 -1.046875 3.980469 -0.210938 C 4.609375 -0.210938 73.96875 -0.210938 76.0625 -0.210938 C 75.851562 -0.839844 76.273438 -1.675781 76.0625 -3.144531 C 58.878906 -4.191406 52.175781 -24.726562 51.546875 -50.5 L 100.789062 -50.5 C 108.960938 -28.496094 115.664062 -10.265625 115.664062 -10.265625 L 105.398438 -2.933594 L 105.398438 0.210938 L 172.449219 0 Z M 51.546875 -54.269531 C 51.546875 -78.996094 57.203125 -109.167969 64.746094 -136.410156 C 66.421875 -142.066406 67.050781 -142.695312 69.148438 -135.570312 C 69.566406 -134.3125 86.121094 -89.683594 99.320312 -54.269531 Z M 51.546875 -54.269531 "/></g></g></g><g fill="#000000" fill-opacity="1"><g transform="translate(712.880193, 187.666709)"><g><path d="M 85.28125 -60.765625 L 85.28125 -56.574219 C 89.890625 -56.574219 94.921875 -56.367188 99.320312 -56.367188 C 104.351562 -56.367188 105.816406 -53.222656 106.027344 -46.726562 C 105.816406 -35.410156 106.863281 -24.097656 106.234375 -17.183594 C 105.605469 -11.105469 102.253906 -6.285156 95.550781 -5.027344 C 83.394531 -2.515625 66.421875 -6.707031 58.25 -21.371094 C 36.667969 -60.136719 49.03125 -150.449219 78.367188 -148.980469 C 98.484375 -147.933594 105.398438 -122.789062 91.566406 -96.597656 C 92.617188 -95.339844 93.035156 -94.710938 94.710938 -93.035156 C 112.730469 -95.757812 138.714844 -103.722656 138.714844 -103.722656 C 138.503906 -122.160156 130.125 -137.246094 113.359375 -145.628906 C 92.617188 -155.898438 65.167969 -155.058594 45.261719 -145.210938 C -4.398438 -121.113281 -7.753906 -43.582031 36.25 -12.363281 C 53.222656 0 93.875 8.171875 119.644531 -11.523438 C 129.496094 -18.648438 133.058594 -13.410156 133.894531 -2.722656 L 138.296875 -2.722656 C 138.296875 -17.390625 138.503906 -49.660156 138.503906 -52.59375 C 138.503906 -58.25 137.457031 -60.765625 131.589844 -60.765625 Z M 85.28125 -60.765625 "/></g></g></g><g fill="#000000" fill-opacity="1"><g transform="translate(849.283976, 187.666709)"><g><path d="M 73.128906 -2.933594 L 58.460938 -9.640625 L 58.460938 -142.90625 L 73.128906 -149.402344 L 73.128906 -152.335938 C 73.128906 -152.335938 58.460938 -152.542969 40.230469 -152.542969 C 22 -152.542969 7.332031 -152.335938 7.332031 -152.335938 L 7.332031 -149.402344 L 22.628906 -142.90625 L 22.628906 -9.640625 L 7.332031 -2.933594 L 7.332031 0.210938 C 7.332031 0.210938 22 0 40.230469 0 C 58.460938 0 73.128906 0.210938 73.128906 0.210938 Z M 73.128906 -2.933594 "/></g></g></g><g fill="#000000" fill-opacity="1"><g transform="translate(920.7333, 187.666709)"><g><path d="M 139.550781 -152.753906 C 139.132812 -152.542969 142.277344 -152.542969 124.046875 -152.542969 C 107.492188 -152.542969 89.054688 -152.753906 89.054688 -152.753906 C 89.054688 -152.753906 88.84375 -150.65625 89.054688 -149.609375 C 116.503906 -137.875 118.808594 -136.199219 121.953125 -67.472656 C 122.371094 -59.089844 121.742188 -59.71875 119.4375 -62.652344 C 115.035156 -68.101562 49.03125 -152.125 49.03125 -152.125 C 34.15625 -152.125 6.496094 -152.125 6.496094 -152.125 L 6.496094 -149.191406 C 6.496094 -149.191406 17.183594 -144.164062 20.117188 -142.90625 C 20.117188 -142.90625 20.117188 -95.128906 19.90625 -91.566406 C 17.390625 -36.039062 18.4375 -10.058594 6.285156 -3.351562 C 6.078125 -1.675781 6.078125 -1.257812 6.078125 0 C 6.496094 0 56.367188 0 56.367188 0 C 56.367188 0 56.574219 -1.257812 56.574219 -3.144531 C 41.488281 -9.640625 25.355469 -6.285156 23.46875 -97.855469 C 23.257812 -112.3125 23.050781 -112.523438 23.886719 -114.617188 C 24.515625 -116.292969 25.5625 -117.339844 27.03125 -115.875 L 118.597656 -0.210938 L 125.304688 -0.210938 C 125.304688 -0.210938 125.511719 -61.183594 125.722656 -67.050781 C 128.238281 -116.921875 127.820312 -144.164062 139.550781 -149.609375 C 139.761719 -150.65625 139.761719 -151.496094 139.550781 -152.753906 Z M 139.550781 -152.753906 "/></g></g></g><g fill="#000000" fill-opacity="1"><g transform="translate(1057.556194, 187.666709)"><g><path d="M 108.121094 -19.695312 C 107.914062 -34.574219 107.703125 -49.871094 107.914062 -51.128906 C 106.234375 -51.128906 104.769531 -51.128906 102.882812 -51.128906 C 100.578125 -34.785156 92.824219 -10.265625 77.320312 -4.609375 C 69.984375 -2.09375 56.367188 -2.722656 53.851562 -11.316406 C 53.222656 -13.828125 52.804688 -17.183594 52.804688 -22.421875 L 52.804688 -68.9375 C 77.527344 -97.855469 84.234375 -58.042969 86.75 -42.535156 L 89.261719 -42.535156 C 89.261719 -42.535156 87.167969 -72.289062 88.84375 -86.957031 C 90.519531 -101.625 67.261719 -101.625 52.804688 -74.59375 L 52.804688 -129.914062 C 52.804688 -135.152344 53.222656 -138.503906 53.851562 -141.019531 C 56.367188 -149.609375 69.984375 -150.238281 77.320312 -147.515625 C 92.824219 -142.066406 100.578125 -117.339844 102.882812 -101.207031 C 104.980469 -101.207031 106.445312 -101.207031 107.914062 -101.207031 C 107.703125 -102.464844 107.914062 -117.761719 108.121094 -132.636719 C 108.332031 -138.714844 112.730469 -146.886719 115.664062 -150.867188 C 116.085938 -151.496094 115.875 -152.335938 114.828125 -152.335938 C 99.742188 -152.335938 2.304688 -152.125 2.304688 -152.125 L 2.304688 -149.191406 L 17.183594 -142.695312 L 17.390625 -63.910156 L 17.183594 -9.640625 L 2.304688 -2.933594 L 2.304688 0.210938 C 2.304688 0.210938 99.742188 0 114.828125 0.210938 C 115.875 0.210938 116.085938 -0.839844 115.664062 -1.464844 C 112.730469 -5.238281 108.332031 -13.621094 108.121094 -19.695312 Z M 108.121094 -19.695312 "/></g></g></g><g fill="#000000" fill-opacity="1"><g transform="translate(676.526442, 243.808744)"><g><path d="M 25.957031 -35.800781 L 25.957031 -21.421875 L 11.398438 -21.421875 L 11.398438 -35.800781 L 3.519531 -35.800781 L 3.519531 0 L 11.398438 0 L 11.398438 -14.441406 L 25.957031 -14.441406 L 25.957031 0 L 33.773438 0 L 33.773438 -35.800781 Z M 25.957031 -35.800781 "/></g></g></g><g fill="#000000" fill-opacity="1"><g transform="translate(724.465831, 243.808744)"><g><path d="M 18.199219 0.476562 C 26.671875 0.476562 33.117188 -4.714844 33.117188 -11.457031 L 33.117188 -35.800781 L 25.238281 -35.800781 L 25.238281 -12.949219 C 25.238281 -9.308594 22.195312 -6.503906 18.199219 -6.503906 C 14.261719 -6.503906 11.21875 -9.308594 11.21875 -12.949219 L 11.21875 -35.800781 L 3.339844 -35.800781 L 3.339844 -11.457031 C 3.339844 -4.714844 9.84375 0.476562 18.199219 0.476562 Z M 18.199219 0.476562 "/></g></g></g><g fill="#000000" fill-opacity="1"><g transform="translate(771.510542, 243.808744)"><g><path d="M 25.0625 -18.140625 C 27.746094 -19.570312 29.476562 -22.078125 29.476562 -25.835938 C 29.476562 -32.160156 24.703125 -35.800781 18.675781 -35.800781 L 3.519531 -35.800781 L 3.519531 0 L 20.050781 0 C 26.015625 0 30.671875 -3.460938 30.671875 -9.785156 C 30.671875 -14.140625 28.402344 -16.828125 25.0625 -18.140625 Z M 21.601562 -25 C 21.601562 -22.914062 19.871094 -21.121094 17.722656 -21.121094 L 11.398438 -21.121094 L 11.398438 -28.820312 L 17.722656 -28.820312 C 19.871094 -28.820312 21.601562 -27.148438 21.601562 -25 Z M 18.914062 -6.980469 L 11.398438 -6.980469 L 11.398438 -14.679688 L 18.914062 -14.679688 C 21.121094 -14.679688 22.792969 -12.886719 22.792969 -10.800781 C 22.792969 -8.652344 21.121094 -6.980469 18.914062 -6.980469 Z M 18.914062 -6.980469 "/></g></g></g></svg>