<svg xmlns="http://www.w3.org/2000/svg" xmlns:xlink="http://www.w3.org/1999/xlink" width="1180" zoomAndPan="magnify" viewBox="0 0 884.88 135.000003" height="180" preserveAspectRatio="xMidYMid meet" version="1.0"><defs><g/><clipPath id="55d67d5f6b"><path d="M 82.328125 67.070312 L 93.890625 67.070312 L 93.890625 77.894531 L 82.328125 77.894531 Z M 82.328125 67.070312 " clip-rule="nonzero"/></clipPath><clipPath id="18811498ac"><path d="M 93.738281 69.550781 C 92.90625 70.484375 90.988281 70.847656 90.519531 70.539062 C 90.207031 70.332031 90.105469 69.707031 90.15625 69.292969 C 90.207031 68.878906 90.625 68.253906 91.039062 68.097656 C 91.558594 67.941406 92.804688 68.203125 93.113281 68.722656 C 93.53125 69.394531 93.0625 71.472656 92.648438 72.300781 C 92.386719 72.875 92.078125 73.082031 91.507812 73.445312 C 90.46875 74.171875 87.09375 75.988281 86.472656 75.570312 C 86.109375 75.3125 86.160156 74.117188 86.421875 73.753906 C 86.679688 73.445312 87.40625 73.445312 87.976562 73.496094 C 88.601562 73.546875 90 73.859375 90.054688 74.171875 C 90.105469 74.480469 88.910156 75.417969 88.652344 75.3125 C 88.339844 75.15625 88.496094 73.289062 88.808594 72.664062 C 89.015625 72.25 89.429688 71.9375 89.792969 71.785156 C 90.207031 71.628906 90.726562 71.628906 91.144531 71.785156 C 91.609375 71.992188 92.078125 72.457031 92.285156 73.082031 C 92.597656 73.964844 92.804688 76.089844 92.285156 76.816406 C 91.816406 77.441406 90.726562 77.597656 89.792969 77.648438 C 88.703125 77.753906 87.40625 77.441406 86.265625 77.078125 C 85.070312 76.714844 83.253906 76.296875 82.785156 75.519531 C 82.421875 74.949219 82.476562 73.808594 82.839844 73.339844 C 83.203125 72.875 84.292969 72.5625 84.8125 72.613281 C 85.226562 72.664062 85.382812 73.183594 85.902344 73.390625 C 86.835938 73.808594 90 74.015625 90.054688 74.328125 C 90.054688 74.480469 89.117188 74.84375 89.117188 74.84375 C 89.117188 74.84375 89.691406 74.222656 90.105469 74.117188 C 90.570312 74.015625 91.453125 74.117188 91.871094 74.480469 C 92.285156 74.84375 92.597656 75.625 92.542969 76.144531 C 92.492188 76.660156 92.023438 77.335938 91.558594 77.597656 C 91.089844 77.855469 90.261719 77.855469 89.792969 77.648438 C 89.328125 77.441406 88.808594 76.714844 88.753906 76.195312 C 88.703125 75.675781 89.015625 74.898438 89.429688 74.535156 C 89.84375 74.171875 90.625 74.015625 91.144531 74.117188 C 91.660156 74.222656 92.285156 74.84375 92.441406 75.3125 C 92.597656 75.832031 92.597656 76.660156 92.179688 77.078125 C 91.507812 77.753906 88.859375 77.804688 87.457031 77.699219 C 86.316406 77.597656 85.226562 77.234375 84.394531 76.816406 C 83.722656 76.453125 83.097656 76.039062 82.785156 75.519531 C 82.527344 75 82.371094 74.222656 82.578125 73.753906 C 82.839844 73.238281 83.824219 72.5625 84.394531 72.5625 C 84.914062 72.5625 85.277344 73.183594 85.902344 73.390625 C 86.886719 73.753906 88.910156 73.703125 89.898438 74.066406 C 90.570312 74.328125 91.507812 74.84375 91.453125 75 C 91.402344 75.15625 90.054688 74.585938 89.636719 74.84375 C 89.222656 75.15625 89.273438 76.972656 89.117188 76.972656 C 88.910156 76.972656 88.445312 73.496094 88.808594 72.664062 C 89.015625 72.199219 89.429688 71.9375 89.792969 71.785156 C 90.207031 71.628906 90.726562 71.628906 91.144531 71.785156 C 91.609375 71.992188 92.078125 72.5625 92.285156 73.082031 C 92.492188 73.652344 92.335938 74.535156 92.285156 75.207031 C 92.234375 75.78125 92.234375 76.402344 91.921875 76.816406 C 91.558594 77.285156 90.78125 77.597656 89.949219 77.648438 C 88.652344 77.699219 85.902344 76.816406 84.863281 76.195312 C 84.292969 75.882812 83.878906 75.570312 83.722656 75.105469 C 83.566406 74.535156 83.722656 73.601562 84.242188 72.976562 C 85.175781 71.886719 89.742188 71.367188 90.363281 70.382812 C 90.675781 69.914062 90.105469 69.292969 90.261719 68.878906 C 90.363281 68.515625 90.726562 68.253906 91.039062 68.097656 C 91.351562 67.941406 91.871094 67.941406 92.179688 68.046875 C 92.492188 68.152344 93.0625 68.667969 93.011719 68.824219 C 92.90625 69.03125 90.675781 68.980469 90.570312 68.667969 C 90.46875 68.410156 91.296875 67.425781 91.816406 67.269531 C 92.285156 67.113281 93.21875 67.371094 93.53125 67.734375 C 93.839844 68.097656 93.738281 69.550781 93.738281 69.550781 " clip-rule="nonzero"/></clipPath><clipPath id="24c19e2f3e"><path d="M 110.382812 86.652344 L 118.859375 86.652344 L 118.859375 92.46875 L 110.382812 92.46875 Z M 110.382812 86.652344 " clip-rule="nonzero"/></clipPath><clipPath id="680d2ffc85"><path d="M 115.320312 92.207031 C 111.691406 90.167969 111.5 87.429688 111.179688 87.429688 C 110.925781 87.429688 110.863281 89.722656 110.734375 89.722656 C 110.605469 89.722656 110.414062 88.765625 110.480469 88.320312 C 110.542969 87.875 110.863281 87.367188 111.242188 87.109375 C 111.625 86.855469 112.007812 86.664062 112.644531 86.664062 C 113.855469 86.664062 117.039062 87.492188 117.933594 88.449219 C 118.503906 89.085938 118.824219 90.230469 118.570312 90.867188 C 118.3125 91.503906 117.039062 92.207031 116.402344 92.207031 C 115.828125 92.207031 115.066406 91.632812 114.8125 91.125 C 114.554688 90.613281 114.554688 89.660156 114.8125 89.148438 C 115.066406 88.640625 115.828125 88.128906 116.402344 88.066406 C 116.976562 88.003906 117.867188 88.320312 118.25 88.765625 C 118.632812 89.210938 118.824219 90.167969 118.695312 90.675781 C 118.632812 91.125 118.378906 91.503906 117.933594 91.761719 C 117.230469 92.207031 115.449219 92.460938 114.300781 92.207031 C 113.027344 91.886719 111.179688 90.675781 110.734375 89.722656 C 110.414062 89.023438 110.542969 87.9375 110.925781 87.429688 C 111.242188 86.984375 112.136719 86.664062 112.644531 86.664062 C 113.089844 86.664062 113.726562 86.917969 113.984375 87.300781 C 114.300781 87.875 113.726562 90.105469 113.664062 90.105469 C 113.601562 90.105469 113.15625 87.558594 113.601562 87.238281 C 114.109375 86.917969 116.464844 88.195312 117.105469 88.832031 C 117.484375 89.210938 117.675781 89.660156 117.742188 90.105469 C 117.804688 90.550781 117.742188 91.125 117.421875 91.441406 C 117.039062 91.886719 115.320312 92.207031 115.320312 92.207031 " clip-rule="nonzero"/></clipPath><clipPath id="65f0cb0c9c"><path d="M 58.894531 50.890625 L 91.117188 50.890625 L 91.117188 83.113281 L 58.894531 83.113281 Z M 58.894531 50.890625 " clip-rule="nonzero"/></clipPath><clipPath id="f77ec58111"><path d="M 75.007812 50.890625 C 66.109375 50.890625 58.894531 58.105469 58.894531 67.003906 C 58.894531 75.902344 66.109375 83.113281 75.007812 83.113281 C 83.902344 83.113281 91.117188 75.902344 91.117188 67.003906 C 91.117188 58.105469 83.902344 50.890625 75.007812 50.890625 Z M 75.007812 50.890625 " clip-rule="nonzero"/></clipPath><clipPath id="213f5638e2"><path d="M 62.320312 59 L 71 59 L 71 71 L 62.320312 71 Z M 62.320312 59 " clip-rule="nonzero"/></clipPath><clipPath id="19bcdbc0c0"><path d="M 73 54.320312 L 87 54.320312 L 87 62 L 73 62 Z M 73 54.320312 " clip-rule="nonzero"/></clipPath><clipPath id="f7483719df"><path d="M 65 54.320312 L 77 54.320312 L 77 66 L 65 66 Z M 65 54.320312 " clip-rule="nonzero"/></clipPath><clipPath id="8808e9aa4f"><path d="M 63 72 L 77 72 L 77 79.632812 L 63 79.632812 Z M 63 72 " clip-rule="nonzero"/></clipPath><clipPath id="d4a159c246"><path d="M 78 63 L 87.632812 63 L 87.632812 75 L 78 75 Z M 78 63 " clip-rule="nonzero"/></clipPath><clipPath id="1cb20784f3"><path d="M 73 68 L 85 68 L 85 79.632812 L 73 79.632812 Z M 73 68 " clip-rule="nonzero"/></clipPath></defs><g clip-path="url(#55d67d5f6b)"><g clip-path="url(#18811498ac)"><path fill="#f9f1ee" d="M 80.503906 65.191406 L 95.828125 65.191406 L 95.828125 79.777344 L 80.503906 79.777344 Z M 80.503906 65.191406 " fill-opacity="1" fill-rule="nonzero"/></g></g><g clip-path="url(#24c19e2f3e)"><g clip-path="url(#680d2ffc85)"><path fill="#f9f1ee" d="M 107.933594 84.117188 L 121.226562 84.117188 L 121.226562 94.753906 L 107.933594 94.753906 Z M 107.933594 84.117188 " fill-opacity="1" fill-rule="nonzero"/></g></g><g clip-path="url(#65f0cb0c9c)"><g clip-path="url(#f77ec58111)"><path fill="#2b2b2b" d="M 58.894531 50.890625 L 91.117188 50.890625 L 91.117188 83.113281 L 58.894531 83.113281 Z M 58.894531 50.890625 " fill-opacity="1" fill-rule="nonzero"/></g></g><g clip-path="url(#213f5638e2)"><path fill="#f9f1ee" d="M 70.996094 70.714844 L 64.476562 59.894531 C 63.109375 61.917969 62.308594 64.351562 62.308594 66.972656 C 62.308594 68.277344 62.507812 69.53125 62.875 70.714844 Z M 70.996094 70.714844 " fill-opacity="1" fill-rule="nonzero"/></g><g clip-path="url(#19bcdbc0c0)"><path fill="#f9f1ee" d="M 73.734375 61.601562 L 86.445312 61.601562 C 84.8125 58.128906 81.648438 55.519531 77.832031 54.632812 Z M 73.734375 61.601562 " fill-opacity="1" fill-rule="nonzero"/></g><g clip-path="url(#f7483719df)"><path fill="#f9f1ee" d="M 69.65625 65.523438 L 76.210938 54.367188 C 75.804688 54.328125 75.394531 54.304688 74.976562 54.304688 C 71.199219 54.304688 67.804688 55.96875 65.484375 58.601562 Z M 69.65625 65.523438 " fill-opacity="1" fill-rule="nonzero"/></g><g clip-path="url(#8808e9aa4f)"><path fill="#f9f1ee" d="M 72.296875 79.242188 L 76.308594 72.246094 L 63.460938 72.246094 C 65.148438 75.910156 68.527344 78.636719 72.597656 79.414062 Z M 72.296875 79.242188 " fill-opacity="1" fill-rule="nonzero"/></g><g clip-path="url(#d4a159c246)"><path fill="#f9f1ee" d="M 78.9375 63.132812 L 85.339844 74.246094 C 86.789062 72.183594 87.644531 69.675781 87.644531 66.972656 C 87.644531 65.636719 87.433594 64.34375 87.046875 63.132812 Z M 78.9375 63.132812 " fill-opacity="1" fill-rule="nonzero"/></g><g clip-path="url(#1cb20784f3)"><path fill="#f9f1ee" d="M 80.242188 68.464844 L 73.863281 79.589844 C 74.230469 79.621094 74.601562 79.640625 74.976562 79.640625 C 78.667969 79.640625 81.992188 78.054688 84.3125 75.527344 Z M 80.242188 68.464844 " fill-opacity="1" fill-rule="nonzero"/></g><path fill="#2b2b2b" d="M 64.257812 0.046875 C 48.042969 0.046875 34.492188 11.386719 31.089844 26.574219 C 23.03125 28.957031 15.835938 34.339844 11.300781 42.203125 C 11.296875 42.203125 11.296875 42.207031 11.296875 42.210938 C 3.195312 56.253906 6.238281 73.660156 17.683594 84.195312 C 15.722656 92.367188 16.785156 101.289062 21.324219 109.148438 C 29.429688 123.195312 46.023438 129.265625 60.875 124.617188 C 66.96875 130.40625 75.226562 133.945312 84.300781 133.945312 C 100.515625 133.945312 114.070312 122.605469 117.472656 107.417969 C 125.527344 105.035156 132.722656 99.652344 137.261719 91.789062 C 137.265625 91.785156 137.265625 91.777344 137.269531 91.773438 C 145.363281 77.730469 142.320312 60.332031 130.875 49.792969 C 132.839844 41.625 131.773438 32.703125 127.238281 24.84375 C 119.132812 10.796875 102.535156 4.726562 87.683594 9.371094 C 81.59375 3.585938 73.332031 0.046875 64.257812 0.046875 Z M 64.257812 6.183594 C 70.652344 6.183594 76.472656 8.320312 81.148438 11.890625 L 52.433594 28.765625 C 52.105469 28.988281 51.832031 29.269531 51.609375 29.601562 C 51.175781 30.128906 50.941406 30.734375 50.914062 31.421875 L 50.917969 55.28125 C 50.917969 55.285156 50.917969 55.289062 50.921875 55.292969 L 50.921875 73.394531 L 36.398438 65.011719 L 36.398438 34.035156 C 36.398438 18.546875 48.773438 6.183594 64.257812 6.183594 Z M 97.085938 13.933594 C 106.953125 13.660156 116.597656 18.6875 121.921875 27.910156 C 125.117188 33.449219 126.179688 39.558594 125.429688 45.394531 L 96.460938 28.957031 C 96.097656 28.785156 95.71875 28.683594 95.320312 28.660156 C 94.644531 28.546875 94.003906 28.652344 93.398438 28.96875 L 72.742188 40.902344 C 72.738281 40.902344 72.738281 40.90625 72.734375 40.910156 L 57.058594 49.960938 L 57.058594 33.1875 L 83.878906 17.699219 C 88.070312 15.28125 92.601562 14.058594 97.085938 13.933594 Z M 30 33.492188 L 30.253906 66.804688 C 30.28125 67.222656 30.390625 67.621094 30.582031 67.996094 C 30.828125 68.609375 31.230469 69.09375 31.792969 69.449219 L 52.457031 81.375 C 52.460938 81.375 52.464844 81.378906 52.46875 81.378906 L 68.144531 90.429688 L 53.617188 98.816406 L 26.800781 83.332031 C 13.390625 75.585938 8.875 58.6875 16.617188 45.269531 C 16.621094 45.265625 16.621094 45.265625 16.621094 45.261719 C 19.820312 39.726562 24.574219 35.757812 30 33.492188 Z M 94.941406 35.175781 L 121.761719 50.660156 C 135.171875 58.40625 139.6875 75.304688 131.941406 88.722656 C 131.941406 88.722656 131.941406 88.726562 131.941406 88.726562 C 128.742188 94.261719 123.988281 98.234375 118.5625 100.5 L 118.304688 67.1875 C 118.277344 66.769531 118.167969 66.371094 117.980469 65.996094 C 117.730469 65.382812 117.328125 64.898438 116.765625 64.542969 L 96.105469 52.617188 C 96.101562 52.617188 96.097656 52.613281 96.09375 52.613281 L 80.417969 43.5625 Z M 74.28125 47.105469 L 91.5 57.050781 L 91.5 76.941406 L 74.28125 86.886719 L 57.058594 76.941406 L 57.058594 57.050781 Z M 97.640625 60.59375 L 112.164062 68.980469 L 112.164062 99.957031 C 112.164062 115.445312 99.789062 127.804688 84.300781 127.804688 C 77.90625 127.804688 72.085938 125.671875 67.410156 122.101562 L 96.125 105.226562 C 96.128906 105.222656 96.136719 105.21875 96.140625 105.214844 C 96.597656 104.941406 96.960938 104.574219 97.226562 104.113281 C 97.230469 104.105469 97.234375 104.101562 97.238281 104.09375 C 97.507812 103.625 97.644531 103.117188 97.648438 102.570312 L 97.644531 78.710938 C 97.644531 78.707031 97.640625 78.703125 97.640625 78.699219 Z M 91.5 84.03125 L 91.5 100.804688 L 64.683594 116.292969 C 51.273438 124.035156 34.382812 119.496094 26.640625 106.082031 C 23.441406 100.542969 22.378906 94.433594 23.132812 88.597656 L 52.101562 105.035156 C 52.460938 105.207031 52.84375 105.308594 53.242188 105.332031 C 53.917969 105.445312 54.554688 105.339844 55.160156 105.023438 L 75.820312 93.089844 C 75.824219 93.085938 75.828125 93.082031 75.835938 93.078125 Z M 91.5 84.03125 " fill-opacity="1" fill-rule="nonzero"/><g fill="#2b2b2b" fill-opacity="1"><g transform="translate(171.207333, 93.697416)"><g><path d="M 37.066406 -1.488281 L 29.628906 -4.886719 L 29.628906 -72.429688 L 37.066406 -75.722656 L 37.066406 -77.210938 C 37.066406 -77.210938 29.628906 -77.316406 20.390625 -77.316406 C 11.152344 -77.316406 3.71875 -77.210938 3.71875 -77.210938 L 3.71875 -75.722656 L 11.46875 -72.429688 L 11.46875 -4.886719 L 3.71875 -1.488281 L 3.71875 0.105469 C 3.71875 0.105469 11.152344 0 20.390625 0 C 29.628906 0 37.066406 0.105469 37.066406 0.105469 Z M 37.066406 -1.488281 "/></g></g></g><g fill="#2b2b2b" fill-opacity="1"><g transform="translate(207.420891, 93.697416)"><g><path d="M 88.042969 -1.59375 L 80.714844 -4.886719 L 80.714844 -72.21875 L 88.042969 -75.617188 L 88.042969 -77.101562 L 61.066406 -77.101562 C 61.066406 -76.890625 58.09375 -61.066406 51.082031 -35.046875 C 49.492188 -33.027344 48.214844 -34.089844 47.152344 -35.152344 L 29.3125 -77.101562 L 1.699219 -76.996094 C 1.699219 -76.996094 1.59375 -75.722656 1.699219 -75.511719 C 1.699219 -75.191406 6.691406 -73.386719 8.285156 -72.535156 C 6.476562 -20.601562 7.007812 -6.691406 1.699219 -1.488281 C 1.699219 -0.742188 1.699219 -0.320312 1.699219 0.105469 C 2.019531 0.105469 -0.320312 0 8.816406 0 C 17.203125 0 25.59375 0 26.65625 0.105469 C 26.65625 -0.53125 26.65625 -1.273438 26.65625 -1.699219 C 19.011719 -4.886719 10.621094 -3.078125 9.664062 -49.492188 L 9.875 -67.757812 C 9.875 -69.351562 10.089844 -69.667969 11.152344 -67.652344 L 41.523438 0 L 43.222656 0 C 43.222656 0 59.261719 -59.578125 60.003906 -63.085938 C 60.535156 -64.890625 62.449219 -64.675781 62.449219 -62.765625 C 62.554688 -59.050781 62.554688 -38.765625 62.554688 -4.886719 L 54.800781 -1.699219 L 54.800781 0.105469 C 54.800781 0.105469 62.234375 0 71.472656 0 C 80.609375 0 88.042969 0.105469 88.042969 0.105469 Z M 88.042969 -1.59375 "/></g></g></g><g fill="#2b2b2b" fill-opacity="1"><g transform="translate(293.441763, 93.697416)"><g><path d="M 87.40625 -1.488281 L 80.078125 -4.992188 L 53.207031 -72.324219 L 59.898438 -75.722656 L 60.003906 -77.210938 L 33.667969 -77.316406 C 17.203125 -18.375 15.613281 -7.222656 2.019531 -1.59375 C 2.019531 -0.851562 2.019531 -0.53125 2.019531 -0.105469 C 2.335938 -0.105469 37.488281 -0.105469 38.550781 -0.105469 C 38.445312 -0.425781 38.65625 -0.851562 38.550781 -1.59375 C 29.84375 -2.125 26.445312 -12.53125 26.125 -25.59375 L 51.082031 -25.59375 C 55.226562 -14.445312 58.625 -5.203125 58.625 -5.203125 L 53.421875 -1.488281 L 53.421875 0.105469 L 87.40625 0 Z M 26.125 -27.507812 C 26.125 -40.039062 28.992188 -55.332031 32.816406 -69.136719 C 33.667969 -72.003906 33.984375 -72.324219 35.046875 -68.714844 C 35.257812 -68.074219 43.648438 -45.453125 50.339844 -27.507812 Z M 26.125 -27.507812 "/></g></g></g><g fill="#2b2b2b" fill-opacity="1"><g transform="translate(379.25025, 93.697416)"><g><path d="M 43.222656 -30.800781 L 43.222656 -28.675781 C 45.5625 -28.675781 48.109375 -28.570312 50.339844 -28.570312 C 52.890625 -28.570312 53.632812 -26.976562 53.738281 -23.683594 C 53.632812 -17.949219 54.164062 -12.214844 53.84375 -8.707031 C 53.527344 -5.628906 51.828125 -3.1875 48.429688 -2.550781 C 42.269531 -1.273438 33.667969 -3.398438 29.523438 -10.832031 C 18.585938 -30.480469 24.851562 -76.253906 39.71875 -75.511719 C 49.914062 -74.980469 53.421875 -62.234375 46.410156 -48.960938 C 46.941406 -48.324219 47.152344 -48.003906 48.003906 -47.152344 C 57.136719 -48.535156 70.304688 -52.570312 70.304688 -52.570312 C 70.199219 -61.917969 65.953125 -69.5625 57.457031 -73.8125 C 46.941406 -79.015625 33.027344 -78.589844 22.941406 -73.597656 C -2.230469 -61.386719 -3.929688 -22.089844 18.375 -6.265625 C 26.976562 0 47.578125 4.140625 60.640625 -5.839844 C 65.632812 -9.453125 67.4375 -6.796875 67.863281 -1.378906 L 70.09375 -1.378906 C 70.09375 -8.816406 70.199219 -25.171875 70.199219 -26.65625 C 70.199219 -29.523438 69.667969 -30.800781 66.695312 -30.800781 Z M 43.222656 -30.800781 "/></g></g></g><g fill="#2b2b2b" fill-opacity="1"><g transform="translate(448.38549, 93.697416)"><g><path d="M 37.066406 -1.488281 L 29.628906 -4.886719 L 29.628906 -72.429688 L 37.066406 -75.722656 L 37.066406 -77.210938 C 37.066406 -77.210938 29.628906 -77.316406 20.390625 -77.316406 C 11.152344 -77.316406 3.71875 -77.210938 3.71875 -77.210938 L 3.71875 -75.722656 L 11.46875 -72.429688 L 11.46875 -4.886719 L 3.71875 -1.488281 L 3.71875 0.105469 C 3.71875 0.105469 11.152344 0 20.390625 0 C 29.628906 0 37.066406 0.105469 37.066406 0.105469 Z M 37.066406 -1.488281 "/></g></g></g><g fill="#2b2b2b" fill-opacity="1"><g transform="translate(484.599048, 93.697416)"><g><path d="M 70.730469 -77.421875 C 70.519531 -77.316406 72.113281 -77.316406 62.871094 -77.316406 C 54.480469 -77.316406 45.136719 -77.421875 45.136719 -77.421875 C 45.136719 -77.421875 45.03125 -76.359375 45.136719 -75.828125 C 59.050781 -69.882812 60.21875 -69.03125 61.808594 -34.199219 C 62.023438 -29.949219 61.703125 -30.269531 60.535156 -31.753906 C 58.304688 -34.515625 24.851562 -77.101562 24.851562 -77.101562 C 17.3125 -77.101562 3.292969 -77.101562 3.292969 -77.101562 L 3.292969 -75.617188 C 3.292969 -75.617188 8.707031 -73.066406 10.195312 -72.429688 C 10.195312 -72.429688 10.195312 -48.214844 10.089844 -46.410156 C 8.816406 -18.265625 9.347656 -5.097656 3.1875 -1.699219 C 3.078125 -0.851562 3.078125 -0.636719 3.078125 0 C 3.292969 0 28.570312 0 28.570312 0 C 28.570312 0 28.675781 -0.636719 28.675781 -1.59375 C 21.027344 -4.886719 12.851562 -3.1875 11.894531 -49.597656 C 11.789062 -56.925781 11.683594 -57.03125 12.105469 -58.09375 C 12.425781 -58.941406 12.957031 -59.472656 13.699219 -58.730469 L 60.109375 -0.105469 L 63.507812 -0.105469 C 63.507812 -0.105469 63.617188 -31.011719 63.722656 -33.984375 C 64.996094 -59.261719 64.785156 -73.066406 70.730469 -75.828125 C 70.835938 -76.359375 70.835938 -76.785156 70.730469 -77.421875 Z M 70.730469 -77.421875 "/></g></g></g><g fill="#2b2b2b" fill-opacity="1"><g transform="translate(553.946712, 93.697416)"><g><path d="M 54.800781 -9.984375 C 54.695312 -17.523438 54.589844 -25.277344 54.695312 -25.914062 C 53.84375 -25.914062 53.101562 -25.914062 52.144531 -25.914062 C 50.976562 -17.628906 47.046875 -5.203125 39.1875 -2.335938 C 35.472656 -1.0625 28.570312 -1.378906 27.292969 -5.734375 C 26.976562 -7.007812 26.761719 -8.707031 26.761719 -11.363281 L 26.761719 -34.941406 C 39.296875 -49.597656 42.695312 -29.417969 43.96875 -21.558594 L 45.242188 -21.558594 C 45.242188 -21.558594 44.179688 -36.640625 45.03125 -44.074219 C 45.878906 -51.507812 34.089844 -51.507812 26.761719 -37.808594 L 26.761719 -65.847656 C 26.761719 -68.5 26.976562 -70.199219 27.292969 -71.472656 C 28.570312 -75.828125 35.472656 -76.148438 39.1875 -74.765625 C 47.046875 -72.003906 50.976562 -59.472656 52.144531 -51.296875 C 53.207031 -51.296875 53.949219 -51.296875 54.695312 -51.296875 C 54.589844 -51.933594 54.695312 -59.6875 54.800781 -67.226562 C 54.90625 -70.304688 57.136719 -74.449219 58.625 -76.464844 C 58.835938 -76.785156 58.730469 -77.210938 58.199219 -77.210938 C 50.550781 -77.210938 1.167969 -77.101562 1.167969 -77.101562 L 1.167969 -75.617188 L 8.707031 -72.324219 L 8.816406 -32.390625 L 8.707031 -4.886719 L 1.167969 -1.488281 L 1.167969 0.105469 C 1.167969 0.105469 50.550781 0 58.199219 0.105469 C 58.730469 0.105469 58.835938 -0.425781 58.625 -0.742188 C 57.136719 -2.65625 54.90625 -6.902344 54.800781 -9.984375 Z M 54.800781 -9.984375 "/></g></g></g><g fill="#2b2b2b" fill-opacity="1"><g transform="translate(360.82463, 122.152587)"><g><path d="M 13.15625 -18.144531 L 13.15625 -10.855469 L 5.777344 -10.855469 L 5.777344 -18.144531 L 1.785156 -18.144531 L 1.785156 0 L 5.777344 0 L 5.777344 -7.320312 L 13.15625 -7.320312 L 13.15625 0 L 17.117188 0 L 17.117188 -18.144531 Z M 13.15625 -18.144531 "/></g></g></g><g fill="#2b2b2b" fill-opacity="1"><g transform="translate(385.122351, 122.152587)"><g><path d="M 9.222656 0.242188 C 13.519531 0.242188 16.785156 -2.390625 16.785156 -5.804688 L 16.785156 -18.144531 L 12.792969 -18.144531 L 12.792969 -6.5625 C 12.792969 -4.71875 11.25 -3.296875 9.222656 -3.296875 C 7.226562 -3.296875 5.6875 -4.71875 5.6875 -6.5625 L 5.6875 -18.144531 L 1.695312 -18.144531 L 1.695312 -5.804688 C 1.695312 -2.390625 4.988281 0.242188 9.222656 0.242188 Z M 9.222656 0.242188 "/></g></g></g><g fill="#2b2b2b" fill-opacity="1"><g transform="translate(408.966613, 122.152587)"><g><path d="M 12.703125 -9.195312 C 14.0625 -9.917969 14.941406 -11.191406 14.941406 -13.09375 C 14.941406 -16.300781 12.519531 -18.144531 9.464844 -18.144531 L 1.785156 -18.144531 L 1.785156 0 L 10.160156 0 C 13.1875 0 15.542969 -1.753906 15.542969 -4.960938 C 15.542969 -7.167969 14.394531 -8.527344 12.703125 -9.195312 Z M 10.949219 -12.671875 C 10.949219 -11.613281 10.070312 -10.707031 8.980469 -10.707031 L 5.777344 -10.707031 L 5.777344 -14.605469 L 8.980469 -14.605469 C 10.070312 -14.605469 10.949219 -13.761719 10.949219 -12.671875 Z M 9.585938 -3.539062 L 5.777344 -3.539062 L 5.777344 -7.441406 L 9.585938 -7.441406 C 10.707031 -7.441406 11.554688 -6.53125 11.554688 -5.472656 C 11.554688 -4.386719 10.707031 -3.539062 9.585938 -3.539062 Z M 9.585938 -3.539062 "/></g></g></g></svg>